<?xml version="1.0" standalone="no"?>
<!DOCTYPE svg PUBLIC "-//W3C//DTD SVG 20010904//EN"
 "http://www.w3.org/TR/2001/REC-SVG-20010904/DTD/svg10.dtd">
<svg version="1.0" xmlns="http://www.w3.org/2000/svg"
 width="1254.000000pt" height="1254.000000pt" viewBox="0 0 1254.000000 1254.000000"
 preserveAspectRatio="xMidYMid meet">

<g transform="translate(0.000000,1254.000000) scale(0.100000,-0.100000)"
fill="#000000" stroke="none">
<path d="M0 6270 l0 -6270 6270 0 6270 0 0 6270 0 6270 -6270 0 -6270 0 0
-6270z m6210 5105 c168 -17 180 -19 350 -59 408 -97 830 -326 1106 -601 294
-292 405 -609 373 -1065 -10 -153 -26 -231 -83 -403 -39 -117 -160 -436 -186
-488 -6 -10 -14 -28 -20 -39 -5 -11 -10 -27 -10 -35 0 -8 -7 -15 -15 -15 -17
0 -20 31 -6 58 16 29 37 83 71 177 18 50 36 99 41 110 14 33 56 194 79 301 19
89 21 125 17 310 -4 222 -14 288 -64 434 -34 98 -64 156 -131 260 -168 258
-576 545 -1042 730 -200 80 -442 151 -610 178 -36 6 -94 16 -130 22 -104 17
-384 27 -520 19 -139 -9 -287 -30 -370 -55 -30 -8 -66 -18 -80 -21 -14 -2 -35
-9 -48 -16 -33 -16 -53 6 -21 24 27 15 87 36 139 49 19 5 69 18 110 29 218 58
296 73 515 96 164 17 374 17 535 0z m-1380 -241 c0 -4 -30 -41 -67 -84 -180
-205 -288 -327 -307 -346 -12 -11 -46 -49 -76 -84 -77 -88 -136 -156 -196
-220 -28 -30 -98 -109 -155 -176 -150 -173 -367 -424 -398 -459 -181 -205
-558 -682 -658 -830 -49 -74 -124 -220 -154 -300 -18 -51 -22 -82 -23 -205 -1
-164 5 -194 67 -319 52 -105 149 -211 261 -285 124 -82 218 -118 356 -136 203
-27 428 38 630 182 298 213 646 688 933 1273 51 104 167 347 167 351 0 1 13
31 29 66 16 35 46 104 66 153 45 111 64 155 75 176 15 29 167 442 202 546 18
57 37 103 41 103 15 0 19 -32 8 -71 -13 -45 -18 -68 -61 -249 -17 -74 -35
-146 -39 -160 -5 -14 -14 -43 -19 -65 -25 -90 -55 -191 -62 -210 -5 -11 -11
-29 -13 -40 -20 -78 -203 -581 -251 -689 -9 -20 -22 -51 -30 -68 -112 -262
-267 -554 -400 -753 -33 -49 -63 -94 -68 -100 -4 -5 -35 -46 -69 -90 -34 -44
-83 -102 -109 -130 -38 -40 -56 -72 -88 -156 -55 -144 -96 -291 -106 -380 -12
-114 18 -161 131 -202 104 -37 199 -55 433 -82 356 -40 398 -47 468 -72 56
-21 102 -73 102 -117 0 -42 -16 -90 -48 -141 -26 -42 -132 -249 -132 -259 0
-3 -12 -31 -26 -62 -16 -35 -23 -65 -20 -80 4 -13 36 -56 72 -96 36 -40 86
-103 111 -140 43 -62 51 -69 142 -111 108 -52 259 -104 311 -109 34 -3 35 -2
35 37 3 149 -75 555 -147 760 -33 95 -130 294 -183 375 -115 177 -273 344
-445 471 -117 86 -122 90 -224 168 -53 40 -96 77 -96 82 0 19 19 17 53 -6 20
-14 38 -25 40 -25 2 0 55 -28 118 -63 340 -187 712 -339 1054 -433 118 -32
252 -58 400 -79 122 -17 435 -21 481 -6 16 5 64 13 107 16 l78 7 40 51 c22 29
49 63 60 77 116 149 311 280 524 351 39 13 71 24 73 25 2 1 -2 40 -9 85 -15
111 -14 139 8 154 60 44 58 38 32 78 -13 20 -30 37 -37 37 -7 0 -35 -11 -61
-25 -130 -65 -319 -85 -423 -44 -140 54 -338 336 -338 480 0 35 34 85 72 106
27 15 54 18 147 17 115 -2 132 -5 276 -51 88 -28 147 -56 214 -101 l43 -30 50
29 c27 16 51 29 54 29 10 0 112 80 169 134 115 107 120 105 318 -153 l49 -63
21 20 c31 30 73 43 100 33 35 -14 377 -363 568 -581 57 -66 91 -96 108 -98 15
-2 37 -13 50 -25 44 -41 51 -75 51 -254 l0 -167 -48 -45 c-27 -26 -52 -59 -56
-75 -4 -16 -20 -42 -37 -58 l-29 -30 36 -99 c37 -97 37 -101 21 -134 -19 -40
-79 -83 -134 -96 -48 -11 -126 7 -153 36 -18 19 -50 119 -50 157 0 10 -5 18
-11 18 -7 0 -9 -35 -4 -118 l7 -118 -38 -30 c-55 -42 -87 -54 -149 -54 -56 0
-131 26 -154 53 -10 13 -12 48 -10 142 4 111 2 125 -12 125 -13 0 -20 -16 -28
-66 -19 -106 -36 -140 -82 -158 -77 -31 -162 -16 -228 40 -26 21 -31 33 -31
69 0 23 11 75 24 114 l23 73 -29 21 c-15 11 -45 45 -65 74 -20 29 -42 53 -50
53 -7 0 -50 -19 -96 -41 -178 -90 -302 -268 -347 -497 -29 -148 1 -558 50
-677 4 -11 13 -40 20 -65 7 -25 14 -51 16 -59 3 -9 14 -11 37 -7 41 8 1818 20
1849 13 41 -11 66 -43 73 -94 11 -84 -17 -77 379 -83 401 -6 389 -3 433 -89
12 -23 26 -48 32 -54 25 -31 54 -222 44 -287 -3 -19 -21 -65 -39 -101 l-32
-65 -6 -790 -6 -789 -22 -17 c-13 -9 -48 -29 -78 -44 -108 -53 -276 -27 -340
53 l-23 28 7 325 c4 178 5 322 3 320 -3 -3 -65 -124 -139 -270 -75 -146 -154
-299 -176 -340 l-40 -76 -6 -384 c-3 -212 -8 -650 -12 -975 -4 -324 -9 -608
-13 -629 -6 -35 -13 -44 -61 -73 -80 -48 -150 -66 -245 -61 -67 2 -92 9 -157
40 -44 21 -82 46 -89 59 -9 17 -10 120 -6 433 7 418 21 988 32 1272 l7 157
-64 -7 c-34 -3 -112 -8 -173 -11 -60 -3 -177 -10 -260 -15 -286 -19 -446 -22
-1024 -24 -372 -1 -583 -5 -589 -11 -6 -5 -24 -38 -42 -72 -48 -94 -67 -79
-33 26 9 28 14 53 12 55 -4 4 -605 29 -722 30 l-47 1 -6 -527 -7 -528 54 -23
c81 -36 163 -55 278 -67 57 -5 104 -10 106 -10 1 0 5 37 8 82 4 46 9 119 13
164 5 56 3 87 -6 103 -18 35 3 48 27 17 31 -39 46 -132 41 -251 -5 -122 -16
-115 125 -90 105 18 161 36 252 82 110 54 111 56 118 153 4 47 2 116 -3 153
-12 79 -6 96 21 71 27 -24 49 -106 49 -182 0 -59 1 -63 17 -51 47 40 123 199
123 260 0 55 -31 139 -74 202 -54 79 -137 146 -255 206 -52 26 -97 53 -99 60
-6 18 23 11 146 -35 276 -104 397 -249 395 -474 -2 -140 -62 -268 -187 -398
-181 -188 -438 -281 -780 -282 -129 0 -162 4 -252 27 -57 15 -106 24 -109 21
-4 -3 -9 -103 -12 -223 l-6 -216 -31 -23 c-17 -12 -60 -35 -95 -50 -55 -25
-78 -29 -165 -29 -96 -1 -104 0 -166 32 -114 58 -102 -21 -99 676 3 624 3 630
-37 855 -24 132 -63 319 -82 385 -15 52 -35 35 -65 -55 -15 -47 -38 -110 -49
-140 -27 -70 -148 -317 -177 -358 -54 -81 -61 -92 -61 -97 0 -19 -216 -295
-231 -295 -17 0 -9 19 42 107 55 97 161 311 204 413 34 82 135 380 135 398 0
10 -6 12 -17 7 -26 -10 -126 -34 -218 -51 -44 -8 -107 -21 -140 -29 -33 -7
-98 -18 -145 -24 -47 -6 -134 -18 -195 -26 -101 -13 -443 -33 -490 -28 -11 1
-90 6 -175 12 -85 6 -166 13 -179 17 -22 7 -23 5 -18 -22 4 -16 12 -102 18
-190 16 -207 2 -398 -39 -566 -27 -106 -29 -125 -21 -206 9 -95 35 -202 67
-276 93 -209 308 -370 567 -424 98 -21 105 -21 117 1 20 38 68 252 68 305 0
28 4 52 10 52 17 0 40 -71 40 -124 0 -58 -25 -197 -40 -226 -19 -36 -12 -40
73 -40 120 0 236 21 359 67 36 13 71 30 76 36 13 17 39 129 47 205 5 41 12 65
21 69 8 3 17 3 20 0 3 -3 8 -49 10 -103 2 -53 5 -99 7 -101 7 -7 85 101 111
153 70 140 3 314 -189 492 -42 39 -76 75 -74 81 5 14 151 -50 214 -94 141 -99
218 -209 246 -354 27 -140 -35 -302 -168 -436 -182 -185 -493 -274 -798 -231
-201 29 -329 73 -468 159 -265 166 -413 473 -377 783 30 250 30 484 1 779 -5
50 -13 123 -17 163 -4 41 -12 75 -18 77 -6 1 -36 8 -66 15 -158 36 -346 112
-495 201 -126 76 -125 75 -151 179 -28 112 -61 322 -70 442 l-6 86 -56 38
c-201 132 -467 364 -664 581 -153 168 -153 167 -271 317 -56 72 -156 198 -222
280 -171 215 -215 273 -215 286 0 19 12 10 126 -97 90 -83 180 -160 314 -266
202 -160 528 -360 785 -482 55 -26 124 -59 153 -72 29 -14 54 -24 56 -22 2 2
11 65 20 139 20 166 29 222 71 455 18 100 82 393 96 440 5 17 22 82 39 145 51
194 147 513 170 565 5 11 30 82 55 157 26 76 62 177 81 225 19 48 34 92 34 96
0 5 11 32 24 60 13 29 29 68 36 87 7 19 18 49 25 65 7 17 26 62 41 100 15 39
32 76 37 83 13 17 12 17 -65 30 -322 51 -627 274 -769 562 -71 144 -92 236
-92 405 1 111 6 147 43 294 14 55 71 179 113 246 80 126 317 432 426 550 21
22 59 65 85 95 43 49 369 390 486 509 171 174 791 756 910 855 19 16 64 55
100 87 107 95 124 108 138 109 6 0 12 -3 12 -6z m1932 -1584 c51 -55 47 -203
-8 -312 -29 -57 -105 -143 -146 -164 -44 -23 -120 -18 -146 9 -80 86 -33 308
94 434 78 78 152 90 206 33z m860 -125 c64 -26 70 -166 12 -289 -46 -98 -116
-156 -187 -156 -47 0 -74 24 -91 79 -34 116 53 305 169 365 29 15 61 16 97 1z"/>
<path d="M8070 8509 c-66 -61 -176 -135 -247 -169 -56 -27 -61 -35 -39 -65 13
-17 17 -16 97 30 100 57 201 130 249 180 27 28 32 39 24 52 -17 28 -26 24 -84
-28z"/>
<path d="M8142 8412 c-91 -98 -155 -140 -273 -178 l-47 -16 59 -79 c35 -45 65
-77 71 -73 6 4 61 48 122 98 61 51 137 111 168 134 31 23 59 46 62 51 4 6 -89
131 -98 131 -1 0 -29 -30 -64 -68z"/>
<path d="M8425 8291 c-65 -49 -294 -208 -467 -323 l-88 -59 0 -88 c0 -48 2
-90 5 -93 3 -3 38 1 78 9 39 8 104 13 142 12 57 -1 516 11 917 24 l76 2 -85
73 c-144 123 -413 370 -477 440 -22 23 -42 42 -45 41 -3 0 -28 -17 -56 -38z"/>
<path d="M4315 7724 c-78 -70 -262 -189 -350 -228 -113 -49 -226 -77 -329 -82
-49 -2 -91 -5 -93 -8 -2 -2 -12 -25 -22 -52 -51 -135 -115 -306 -136 -364
-103 -280 -258 -790 -325 -1065 -11 -49 -30 -124 -40 -165 -128 -513 -199
-1247 -156 -1600 36 -295 68 -444 104 -477 26 -24 198 -112 302 -154 78 -31
275 -79 390 -94 25 -3 61 -8 80 -11 19 -3 139 -8 265 -11 223 -5 411 7 595 37
30 5 89 14 130 20 75 11 102 16 240 45 199 43 324 74 497 127 l43 13 -6 100
c-8 139 7 169 141 277 39 31 89 75 111 99 42 44 42 44 47 137 4 91 4 92 -19
92 -20 0 -60 9 -169 40 -16 5 -41 12 -55 16 -88 24 -277 101 -417 170 l-63 31
0 -52 c0 -29 4 -87 10 -131 5 -43 11 -116 13 -161 l4 -82 -67 -50 c-114 -85
-297 -173 -427 -206 -284 -71 -547 -58 -803 40 -145 56 -350 176 -365 213 -10
26 -43 512 -45 667 -3 225 -1 250 22 275 l22 23 310 -7 c320 -8 411 -11 579
-20 59 -3 97 -1 97 4 0 6 -4 10 -9 10 -12 0 -138 151 -194 231 -130 187 -218
424 -248 665 -15 127 -7 378 16 489 33 156 36 170 42 203 3 18 9 35 14 38 5 3
9 16 9 29 0 32 10 56 21 49 12 -7 12 -81 0 -88 -5 -3 -11 -23 -14 -43 -3 -21
-10 -63 -16 -93 -25 -136 -31 -194 -30 -330 0 -80 4 -178 9 -219 14 -108 53
-263 72 -285 4 -6 8 -16 8 -24 0 -21 51 -122 87 -173 18 -26 33 -50 33 -54 0
-13 58 -102 132 -202 172 -235 488 -483 822 -646 116 -56 320 -131 451 -165
22 -6 58 -15 80 -21 128 -36 464 -80 608 -81 l67 0 0 285 c0 285 15 511 46
700 15 94 21 120 49 220 29 101 29 104 5 131 -22 23 -29 24 -145 24 -342 0
-679 98 -938 272 -99 67 -234 182 -267 228 -37 51 -37 121 -1 218 38 101 107
247 155 327 28 46 33 62 23 71 -19 17 -87 29 -392 69 -360 46 -508 87 -623
172 -65 49 -98 164 -72 260 25 95 73 229 106 297 19 38 33 70 32 72 -2 1 -25
-18 -53 -42z"/>
<path d="M8075 7709 c-118 -10 -237 -48 -375 -121 -165 -87 -285 -188 -389
-325 -90 -120 -182 -330 -215 -488 -51 -249 -69 -686 -38 -960 15 -127 22
-154 43 -160 25 -8 188 -183 207 -222 18 -38 28 -41 37 -12 13 39 86 108 144
135 35 16 81 28 122 31 60 5 74 2 137 -27 164 -75 238 -227 182 -370 -24 -61
-24 -60 -2 -60 9 0 64 -12 121 -26 57 -14 105 -23 107 -21 3 3 -109 309 -141
382 -7 17 -32 86 -56 154 -24 68 -48 130 -54 138 -8 11 -47 14 -175 16 l-165
2 -31 95 c-75 227 -87 286 -110 553 -7 75 7 238 26 317 43 176 105 293 212
403 69 70 168 133 279 178 l71 29 267 -1 c146 -1 408 -4 581 -8 289 -6 316 -5
331 10 13 14 16 46 18 171 2 138 0 156 -16 171 -17 15 -69 17 -533 19 -283 2
-546 0 -585 -3z"/>
<path d="M5530 7248 c151 -179 287 -430 361 -666 44 -145 61 -213 78 -322 6
-36 16 -94 22 -130 6 -36 13 -105 15 -155 l4 -90 29 -3 c32 -3 30 -7 51 83 6
28 15 66 20 85 44 170 166 683 190 800 5 25 14 65 19 90 6 24 8 46 6 48 -2 3
-21 8 -42 12 -117 24 -297 83 -453 147 -94 40 -320 150 -334 164 -6 5 -14 9
-18 9 -5 0 19 -33 52 -72z"/>
<path d="M8150 7231 c0 -13 44 -49 75 -61 64 -26 261 -70 270 -62 3 3 5 16 5
29 0 13 6 23 14 23 13 0 19 -38 35 -240 l6 -75 70 -3 c122 -5 115 -15 115 157
l0 149 -67 7 c-96 9 -113 13 -113 30 0 12 20 15 115 15 l114 0 6 -37 c11 -63
11 -63 57 -57 56 7 183 41 230 61 32 13 68 49 68 68 0 2 -225 5 -500 5 -275
-1 -500 -4 -500 -9z"/>
<path d="M8985 7058 c-33 -11 -66 -22 -74 -24 -14 -4 -11 -26 9 -80 10 -25 13
-26 57 -20 26 3 52 11 57 16 6 6 18 10 27 10 10 0 21 5 24 10 9 15 -17 110
-29 109 -6 0 -38 -10 -71 -21z"/>
<path d="M8200 6993 c-6 -32 -14 -66 -16 -75 -10 -36 83 -82 122 -60 13 7 7
11 -22 15 -44 7 -90 35 -77 47 4 5 28 5 53 0 74 -15 90 -13 100 15 27 71 27
71 -42 84 -35 7 -71 17 -80 22 -26 13 -26 14 -38 -48z"/>
<path d="M6439 6969 c0 -2 -3 -22 -5 -44 -4 -35 -16 -95 -44 -225 -4 -19 -15
-71 -24 -115 -22 -110 -80 -343 -151 -614 -13 -52 -23 -97 -20 -99 2 -2 66 -3
143 -3 145 2 181 -5 219 -41 13 -12 24 -20 26 -17 35 50 104 166 173 293 50
90 48 100 -19 111 -80 14 -121 47 -132 108 -6 33 1 54 68 190 94 190 112 230
153 342 19 50 34 91 34 91 0 1 -80 4 -177 7 -98 4 -193 9 -210 13 -18 3 -33 5
-34 3z"/>
<path d="M6985 6958 c-2 -7 -12 -38 -21 -68 -29 -97 -45 -144 -60 -177 -8 -18
-20 -48 -28 -66 -8 -17 -23 -52 -34 -77 -11 -25 -42 -87 -70 -138 l-51 -93 25
-9 c14 -6 33 -10 43 -10 26 0 84 -41 98 -70 24 -48 16 -107 -24 -174 -47 -79
-183 -264 -217 -295 -44 -42 -35 -46 81 -41 110 5 193 0 227 -15 18 -8 19 -5
12 31 -37 206 -44 582 -15 844 20 183 27 223 55 310 8 25 14 48 14 53 0 12
-30 8 -35 -5z"/>
<path d="M9058 6929 c-16 -17 -37 -29 -52 -29 -14 0 -28 -4 -31 -10 -4 -6 7
-10 27 -10 43 0 98 34 98 60 0 26 -9 24 -42 -11z"/>
<path d="M8675 6798 c-22 -5 -55 -6 -72 -3 -19 3 -33 2 -33 -4 0 -5 17 -12 39
-16 42 -7 121 10 121 25 0 11 -1 11 -55 -2z"/>
<path d="M8000 5793 c1 -5 13 -46 29 -93 27 -83 29 -85 62 -88 19 -2 210 2
424 8 215 7 525 15 690 19 l300 6 -2 30 c-1 17 -5 44 -8 61 l-5 31 -88 5 c-48
3 -262 6 -477 7 -214 1 -478 6 -585 11 -239 12 -340 12 -340 3z"/>
<path d="M6589 5622 c-16 -40 -45 -193 -58 -307 -16 -129 -28 -512 -21 -635
l5 -95 45 2 c154 8 400 82 512 155 84 54 158 132 193 203 27 54 30 70 30 155
0 89 -7 121 -38 190 -47 102 -150 229 -232 285 -76 53 -132 66 -288 71 l-138
4 -10 -28z"/>
<path d="M9634 5611 c-2 -2 -4 -15 -4 -27 0 -16 -10 -29 -31 -39 -27 -14 -112
-16 -775 -13 -409 2 -744 2 -744 0 0 -1 37 -113 82 -248 l82 -245 60 5 c34 3
80 5 104 5 35 1 42 4 42 21 0 11 4 28 9 38 5 9 15 32 22 50 18 48 40 59 169
76 136 18 653 36 793 27 111 -8 111 -8 186 -117 26 -38 54 -69 65 -70 46 -6
65 -15 80 -38 34 -53 48 -452 16 -502 -6 -10 -24 -28 -38 -39 -26 -19 -49 -20
-647 -27 -374 -5 -958 -3 -1470 4 -913 12 -944 12 -981 -3 -14 -5 -52 -9 -85
-9 l-59 0 0 -64 c0 -93 -7 -96 -185 -95 -77 0 -180 4 -229 8 -88 8 -89 8 -115
-19 -14 -16 -78 -74 -141 -130 -155 -139 -290 -269 -290 -280 0 -11 91 -15
685 -28 259 -6 499 -13 535 -16 116 -10 2258 -19 2481 -11 l216 7 33 57 c19
31 46 79 61 106 15 28 64 118 108 200 79 147 422 831 496 990 129 277 166 366
163 389 -2 17 -13 22 -60 28 -62 8 -627 16 -634 9z m-1780 -1326 c-1 -91 -14
-197 -26 -211 -10 -14 -712 -20 -844 -8 l-76 7 5 36 c2 20 22 72 43 116 37 76
41 81 84 93 27 8 159 16 335 22 160 6 317 12 350 13 33 2 76 3 95 3 l35 -1 -1
-70z m1042 -70 c18 -71 34 -136 34 -142 0 -19 -983 -19 -998 0 -7 8 -8 25 -3
47 15 59 55 164 70 179 9 10 51 18 130 24 143 10 525 24 644 23 l89 -1 34
-130z"/>
<path d="M7007 4271 c-13 -15 -47 -117 -47 -142 0 -15 18 -16 178 -12 97 2
246 8 331 13 85 6 184 10 221 10 l67 0 7 38 c3 20 6 52 6 70 l0 32 -297 1
c-164 1 -333 2 -376 3 -56 1 -82 -3 -90 -13z"/>
<path d="M8083 4282 c-58 -2 -73 -6 -77 -20 -20 -68 -37 -154 -32 -159 3 -3
86 -1 183 5 98 7 286 14 418 17 132 3 243 9 247 13 4 4 0 35 -8 69 l-16 61
-131 6 c-162 8 -486 12 -584 8z"/>
<path d="M7600 5552 c-153 -20 -248 -224 -172 -373 33 -65 74 -94 145 -103
208 -26 360 160 272 333 -46 92 -154 155 -245 143z m98 -128 c50 -29 67 -63
66 -129 0 -76 -22 -119 -74 -145 -87 -45 -161 -17 -210 80 -36 71 -14 161 49
195 36 20 136 19 169 -1z"/>
<path d="M7567 5379 c-11 -6 -25 -26 -33 -44 -12 -29 -11 -39 2 -80 19 -53 48
-77 100 -78 60 -2 116 75 100 139 -12 45 -53 74 -105 74 -25 0 -54 -5 -64 -11z"/>
<path d="M10405 5473 c-33 -92 -90 -212 -313 -663 -204 -411 -308 -611 -445
-857 -45 -80 -46 -84 -39 -140 l7 -58 46 80 c43 73 104 183 182 325 67 122
185 332 239 425 19 33 54 96 78 140 23 44 62 114 85 155 49 88 76 136 157 282
l59 107 -4 88 c-6 101 -16 163 -27 163 -4 0 -15 -21 -25 -47z"/>
<path d="M8529 5144 c-9 -11 -20 -29 -23 -41 -4 -13 -12 -23 -17 -23 -5 0 -9
-7 -9 -15 0 -18 64 -20 220 -5 234 22 533 40 668 40 78 0 142 4 142 9 0 23
-41 29 -245 35 -744 20 -719 20 -736 0z"/>
<path d="M7880 5091 c0 -18 -108 -92 -156 -106 -87 -26 -246 -14 -275 21 -22
27 -35 14 -49 -48 -28 -129 -158 -272 -330 -364 -35 -19 -13 -19 1289 -16 729
1 1327 4 1328 6 9 8 14 277 6 331 l-8 60 -485 12 c-267 6 -590 12 -717 12
-250 1 -269 4 -522 82 -71 21 -81 23 -81 10z"/>
<path d="M3516 5043 c-9 -9 -7 -186 4 -288 5 -49 12 -142 15 -205 4 -63 8
-131 10 -150 13 -117 16 -146 20 -157 10 -31 222 -143 347 -184 139 -46 225
-59 387 -59 266 1 446 49 661 176 l79 47 -5 66 c-2 36 -6 132 -8 214 -2 81 -5
149 -7 150 -2 2 -33 20 -69 42 -98 58 -254 180 -350 272 l-85 83 -497 -1
c-273 0 -499 -3 -502 -6z"/>
<path d="M10318 4912 c-31 -65 -106 -211 -167 -327 l-111 -210 0 -395 c0 -217
4 -400 8 -406 8 -11 51 -29 96 -39 39 -8 129 12 160 36 26 20 26 22 26 162 0
78 5 196 10 262 5 66 12 206 15 310 3 105 10 255 15 335 11 163 16 378 9 384
-2 2 -30 -48 -61 -112z"/>
<path d="M2110 4898 c59 -55 266 -225 395 -322 171 -129 188 -141 193 -136 2
3 4 41 4 84 l1 79 -64 25 c-103 40 -362 176 -472 247 -97 63 -100 64 -57 23z"/>
<path d="M5663 3825 c-12 -33 8 -157 32 -195 56 -88 133 -129 269 -140 142
-12 445 -29 611 -35 77 -2 219 -9 315 -15 534 -31 1643 -56 2128 -48 171 3
312 1 312 -3 0 -13 -75 -30 -162 -37 l-79 -7 1 -270 c0 -148 5 -364 10 -480 5
-115 10 -400 10 -632 l0 -423 43 -22 c34 -18 58 -22 132 -22 77 -1 97 3 140
25 l50 25 12 270 c20 431 33 665 48 879 8 110 17 277 20 370 4 94 10 213 14
265 4 52 6 97 4 100 -2 2 -13 -1 -23 -8 -23 -14 -100 -42 -117 -42 -22 0 -15
26 24 91 37 62 38 65 38 168 l0 105 -105 -4 c-208 -8 -1593 5 -1609 15 -4 2
-189 9 -412 14 -407 11 -1006 30 -1089 35 -25 2 -152 7 -283 11 -131 5 -240
12 -243 17 -10 15 -84 9 -91 -7z"/>
<path d="M5540 3488 c0 -7 5 -20 10 -28 8 -12 10 -9 10 13 0 15 -4 27 -10 27
-5 0 -10 -6 -10 -12z"/>
<path d="M5590 3418 c1 -46 5 -155 10 -243 5 -88 12 -401 15 -695 3 -294 7
-609 9 -700 l2 -165 47 -23 c62 -32 171 -35 242 -8 82 31 85 36 85 140 0 122
17 499 35 781 9 127 16 268 16 315 0 47 4 130 9 186 5 55 10 149 11 210 l2
109 -94 6 c-52 3 -107 9 -124 13 -112 30 -194 73 -240 128 l-25 30 0 -84z"/>
</g>
</svg>
